# xmcd CD database file
#
# Track frame offsets:
#	150
#	12038
#	22951
#	32614
#	45678
#	57024
#	70035
#	79157
#	90981
#	103817
#	114849
#	125233
#	136639
#	148465
#	160093
#	169642
#	181329
#	194454
#	212122
#	220666
#	231159
#	249536
#	262277
#	275835
#	288301
#	300240
#	312218
#	321573
#	333837
#
# Disc length: 4652 seconds
#
# Revision: 0
# Processed by: cddbd v1.5.2PL0 Copyright (c) Steve Scherf et al.
# Submitted via: CDex 1.70beta2
#
DISCID=9f122a1d
DTITLE=Frankie Lane - Johnny Cash - Elvis - Mixed
DYEAR=1900
DGENRE=Country
TTITLE0=Wanted Man
TTITLE1=High Noon
TTITLE2=Gunfight at OK Corral
TTITLE3=Bowie Knife
TTITLE4=Along The Navajo Trail
TTITLE5=The Cry of the Wild Goose
TTITLE6=Rawhide
TTITLE7=City Boy
TTITLE8=Cool Water
TTITLE9=The 3:10 To Yuma
TTITLE10=The Hanging Tree
TTITLE11=Mule Train
TTITLE12=Ring of Fire
TTITLE13=I'd Still Be Ther
TTITLE14=What Do I Care
TTITLE15=I Still Miss Someone
TTITLE16=Forty Shades fo Green
TTITLE17=Were You there
TTITLE18=The Rebel
TTITLE19=Bonanza
TTITLE20=The Big Battle
TTITLE21=Remember the Alamo
TTITLE22=Tennesse Flat Top Box
TTITLE23=Peace In the Valley
TTITLE24=Didja Ever
TTITLE25=Frankfort Special
TTITLE26=Wooden Heart
TTITLE27=Puppet On the String
TTITLE28=Gi Blues
EXTD=
EXTT0=
EXTT1=
EXTT2=
EXTT3=
EXTT4=
EXTT5=
EXTT6=
EXTT7=
EXTT8=
EXTT9=
EXTT10=
EXTT11=
EXTT12=
EXTT13=
EXTT14=
EXTT15=
EXTT16=
EXTT17=
EXTT18=
EXTT19=
EXTT20=
EXTT21=
EXTT22=
EXTT23=
EXTT24=
EXTT25=
EXTT26=
EXTT27=
EXTT28=
PLAYORDER=
